<svg width="180.14999771118164" height="92.85000228881836" xmlns="http://www.w3.org/2000/svg">

 <g>
  <title>background</title>
  <rect fill="none" id="canvas_background" height="402" width="582" y="-1" x="-1"/>
 </g>
 <g>
  <title>Layer 1</title>
  <g stroke="null" id="svg_3">
   <g stroke="null" fill="#000000" id="SvgjsG1425">
    <path stroke="null" id="svg_1" fill=" rgb(0, 0, 0)" d="m60.775755,36.819421c0,3.4156 -1.541396,6.159435 -3.977796,7.739505c-2.118177,1.343533 -4.803189,1.6463 -7.498146,1.6463l-11.147774,0l0,-18.77161l11.853833,0c2.754624,0 5.061746,0.482536 7.050644,1.882838c2.307122,1.532763 3.71924,4.030598 3.71924,7.502967zm-27.178293,-13.65294c-0.318224,0 -0.57678,0.302768 -0.57678,0.605536l0,40.362746c0,0.302768 0.258557,0.548767 0.57678,0.548767l3.908185,0c0.328168,0 0.646392,-0.245999 0.646392,-0.548767l0,-13.65294l11.983111,0c3.649628,0 7.239589,-0.491998 10.25277,-2.630296c3.460683,-2.374836 5.578859,-6.339203 5.578859,-11.032106c0,-4.692903 -1.929231,-8.354502 -5.131357,-10.729338c-3.013181,-2.251836 -6.284918,-2.923603 -10.063825,-2.923603l-17.174136,0zm35.571444,40.599284c-0.129278,0.122999 -0.129278,0.312229 -0.129278,0.425767c0,0.312229 0.258557,0.491998 0.636447,0.491998l33.970381,0c0.318224,0 0.57678,-0.245999 0.57678,-0.548767l0,-3.169602c0,-0.302768 -0.258557,-0.614997 -0.57678,-0.614997l-26.213678,0l26.084399,-36.209149c0.129278,-0.18923 0.129278,-0.302768 0.129278,-0.425767c0,-0.312229 -0.258557,-0.548767 -0.646392,-0.548767l-33.125099,0c-0.328168,0 -0.57678,0.302768 -0.57678,0.605536l0,3.112833c0,0.359537 0.248612,0.605536 0.57678,0.605536l25.368396,0l-26.074455,36.27538zm72.475449,-40.599284c-0.318224,0 -0.646392,0.302768 -0.646392,0.605536l0,17.929537l-26.144066,0l0,-17.929537c0,-0.302768 -0.318224,-0.605536 -0.636447,-0.605536l-3.908185,0c-0.318224,0 -0.57678,0.302768 -0.57678,0.605536l0,40.362746c0,0.302768 0.258557,0.548767 0.57678,0.548767l3.908185,0c0.318224,0 0.636447,-0.245999 0.636447,-0.548767l0,-18.109305l26.144066,0l0,18.109305c0,0.302768 0.328168,0.548767 0.646392,0.548767l3.908185,0c0.318224,0 0.57678,-0.245999 0.57678,-0.548767l0,-40.362746c0,-0.302768 -0.258557,-0.605536 -0.57678,-0.605536l-3.908185,0z"/>
   </g>
   <g stroke="null" fill="#242424" transform="translate(0,0) scale(1.5) " id="SvgjsG1426">
    <path stroke="null" id="svg_2" fill=" rgb(36, 36, 36)" d="m119.433334,58.566667l-119.433334,0l0,-58.566667l119.433334,0l0,58.566667zm-118.73722,-0.662305l118.041106,0l0,-57.242057l-118.041106,0l0,57.242057z"/>
   </g>
  </g>
 </g>
</svg>